<svg width="322" height="153" viewBox="0 0 322 153" fill="none" xmlns="http://www.w3.org/2000/svg">
<path fill-rule="evenodd" clip-rule="evenodd" d="M76.3944 0.210541C76.2201 0.349901 76.1155 2.54482 76.1504 5.12298C76.2201 8.88569 76.3246 9.79153 76.7429 9.93089C77.0218 10.0354 77.3355 9.89605 77.4401 9.65217C77.5447 9.44313 77.5796 7.21337 77.5447 4.73974C77.475 1.95254 77.3007 0.175701 77.0567 0.106021C76.8475 0.0363408 76.5687 0.106021 76.3944 0.210541ZM64.3681 5.7501C64.3681 6.02882 65.2744 7.49209 66.4248 8.95537C67.5403 10.4535 68.7254 11.9168 69.0392 12.1955C69.5621 12.6484 69.7015 12.6484 70.2244 12.1258C70.7473 11.5684 70.7821 11.4639 70.2592 10.9064C69.9804 10.558 68.7254 9.12957 67.4705 7.73597C66.2505 6.34238 65.0304 5.19266 64.7864 5.2275C64.5773 5.2275 64.3681 5.47138 64.3681 5.7501ZM85.7016 8.18889C84.3421 9.82637 83.1918 11.3942 83.1918 11.6729C83.1918 11.9516 83.4358 12.2652 83.7147 12.3697C83.9936 12.4742 84.3073 12.5439 84.4119 12.5439C84.5164 12.5439 85.5971 11.1851 86.852 9.47797C88.072 7.80565 89.0829 6.16818 89.1178 5.81978C89.1178 5.50622 88.9086 5.2275 88.6646 5.2275C88.4206 5.2275 87.096 6.55142 85.7016 8.18889ZM74.756 12.8575C74.2331 12.9968 73.3617 13.38 72.8388 13.6936C72.3159 13.9723 71.5141 14.5994 71.0958 15.0524C70.6775 15.4704 70.0849 16.4808 69.7364 17.2473C69.4226 18.0138 69.1438 19.4074 69.1438 20.3829C69.1438 21.4281 69.4226 22.6823 69.8409 23.5185C70.2244 24.285 71.1656 25.3998 71.8976 26.027C72.6296 26.6541 73.8845 27.3509 74.6514 27.5599C75.4183 27.769 76.7081 27.8735 77.5098 27.7341C78.3464 27.6296 79.6362 27.2115 80.4031 26.8283C81.17 26.445 82.1112 25.7134 82.5295 25.156C82.9129 24.6334 83.4707 23.6578 83.7495 22.9959C84.0284 22.3339 84.2376 21.1494 84.2376 20.3829C84.2376 19.6164 84.0633 18.4318 83.8541 17.7699C83.6101 17.1079 83.1569 16.1324 82.7735 15.575C82.4249 15.0524 81.4837 14.251 80.6471 13.7633C79.8454 13.2755 78.3813 12.8226 77.4401 12.7181C76.4641 12.6484 75.2789 12.6833 74.756 12.8575ZM57.3964 16.2718C57.3615 16.446 57.5707 16.7595 57.8147 16.9686C58.0587 17.2124 59.9759 17.735 62.1023 18.1183C64.2287 18.5364 66.1459 18.7802 66.3551 18.6757C66.5991 18.5712 66.8082 18.2228 66.8082 17.9441C66.8082 17.6654 66.5294 17.2821 66.1808 17.1079C65.867 16.9337 64.159 16.6202 62.4509 16.4111C60.7428 16.2021 58.8953 16.0279 58.3376 16.0279C57.8147 16.0279 57.3964 16.1324 57.3964 16.2718ZM90.1635 16.446C88.7343 16.6202 87.34 16.9686 87.096 17.1776C86.852 17.4215 86.6428 17.8047 86.6777 18.0138C86.6777 18.2576 86.8868 18.5712 87.096 18.6757C87.34 18.7802 88.9783 18.606 90.6864 18.2925C92.3945 17.9789 94.3466 17.4912 94.9392 17.2124C95.5666 16.9337 96.0198 16.5505 95.9152 16.3763C95.8106 16.1672 95.0786 16.0627 94.242 16.0627C93.4403 16.0976 91.5927 16.2718 90.1635 16.446ZM249.991 24.7379C246.714 25.7831 245.808 26.2012 245.808 26.6889C245.808 27.0722 246.226 27.4206 246.923 27.6644C247.55 27.8735 248.213 28.187 248.387 28.3961C248.631 28.6051 248.771 33.9356 248.805 43.3773C248.84 51.4253 248.771 58.2191 248.631 58.4281C248.527 58.672 247.794 58.9856 247.028 59.1249C245.773 59.3688 245.633 59.5082 245.633 60.3443V61.3198C258.496 61.3198 258.531 61.3198 258.74 60.5185C258.845 60.1004 258.81 59.6824 258.705 59.5778C258.566 59.4733 257.834 59.2294 257.032 59.0552L255.568 58.7068C255.394 42.4714 255.429 42.3321 256.195 41.5307C256.614 41.0778 257.834 40.4855 258.88 40.2068C260.309 39.7887 261.041 39.7539 261.843 40.0326C262.4 40.2417 263.237 40.7643 263.62 41.1823C264.039 41.6353 264.492 42.3669 264.631 42.8547C264.806 43.3424 264.875 47.0006 264.84 51.0421C264.806 57.5223 264.736 58.3933 264.178 58.8114C263.864 59.0552 263.237 59.2294 262.784 59.2294C262.156 59.2294 262.017 59.4385 262.017 60.2746V61.3198L274.043 61.1456C274.217 59.4036 274.078 59.2294 273.416 59.2294C272.997 59.2294 272.37 59.0552 272.056 58.8114C271.568 58.4281 271.464 57.3133 271.324 50.3453C271.219 44.1786 271.045 41.9837 270.627 40.7643C270.313 39.8933 269.477 38.639 268.745 37.9422C267.803 37.0364 266.862 36.5835 265.503 36.2699C264.108 35.9912 263.132 35.9564 261.912 36.2351C261.006 36.4093 259.751 36.8274 259.124 37.1409C258.531 37.4545 257.485 38.0816 256.858 38.5345C256.265 38.9874 255.673 39.3707 255.568 39.3707C255.463 39.3707 255.394 35.7473 255.394 31.3575C255.394 23.9366 255.359 23.3443 254.766 23.3791C254.452 23.414 252.291 24.0062 249.991 24.7379ZM223.149 24.4243C221.999 24.8076 220.047 25.2953 218.792 25.574C217.154 25.8876 216.491 26.1663 216.422 26.5844C216.387 27.0025 216.875 27.4206 217.921 27.8735C219.106 28.3961 219.489 28.7793 219.524 29.3368C219.524 29.7897 219.524 36.688 219.524 44.6663L219.489 59.2294C220.709 60.5185 221.825 61.0411 222.801 61.2502C223.742 61.4592 225.938 61.7379 227.681 61.8424C229.529 61.9818 231.759 61.9121 233.084 61.7031C234.339 61.494 236.256 60.8669 237.407 60.3443C238.627 59.7869 240.056 58.7417 240.962 57.7313C241.799 56.8255 242.775 55.4319 243.158 54.5957C243.507 53.7944 243.995 52.1918 244.239 51.0421C244.587 49.4394 244.587 48.3245 244.274 46.2341C244.065 44.7709 243.542 42.8198 243.123 41.8791C242.705 40.9733 241.624 39.5797 240.753 38.7435C239.882 37.8725 238.383 36.9319 237.337 36.5486C236.256 36.1654 234.618 35.8867 233.258 35.8867C232.003 35.8867 230.47 36.0957 229.842 36.3396C229.25 36.5835 228.134 37.2454 227.402 37.8377L226.078 38.8481C226.112 25.3998 226.008 23.6927 225.659 23.7275C225.45 23.7624 224.3 24.0759 223.149 24.4243ZM227.367 40.8339C228.169 40.4159 229.354 40.0675 230.191 40.0675C231.027 40.0675 232.282 40.3113 232.98 40.6249C233.712 40.9036 234.688 41.4959 235.106 41.914C235.559 42.3321 236.291 43.3076 236.675 44.0741C237.302 45.2586 237.441 46.0599 237.441 49.1259C237.441 51.3905 237.232 53.446 236.919 54.4912C236.64 55.4667 235.838 56.8603 233.851 59.0552H231.062C228.413 59.0552 228.204 58.9856 226.112 56.9649L226.008 41.6004L227.367 40.8339ZM15.8797 25.3302C15.6705 25.8528 13.1607 33.2737 10.3023 41.8095C6.81644 52.1569 4.8295 57.5571 4.30662 58.1146C3.88831 58.5326 2.94713 59.0204 2.21509 59.1598C1.0299 59.3688 0.890465 59.5082 0.995041 60.2746L1.09962 61.1456H12.2544C12.4287 59.3688 12.2893 59.2294 11.5572 59.2294C11.0692 59.2294 10.2674 59.0553 9.70971 58.8462C8.80338 58.4978 8.76853 58.3933 8.97768 56.8603C9.11711 55.9545 9.67485 53.8293 10.3023 52.1569L11.3829 49.1259L22.3634 49.091C25.0475 57.0694 25.2567 57.9404 24.8732 58.3584C24.6641 58.672 23.8275 59.0204 23.0954 59.1598C22.3634 59.2991 21.7011 59.4733 21.6314 59.5778C21.5965 59.6475 21.5965 60.1004 21.6662 60.5185L21.8405 61.3198L35.6097 61.1456C35.7491 59.4385 35.6446 59.2294 35.0868 59.2294C34.7034 59.2294 34.0062 58.881 33.5182 58.4281C32.9604 57.9404 32.1238 56.2332 31.2524 53.8293C30.5203 51.704 28.0802 44.8754 25.8493 38.6739C23.5835 32.4375 21.4571 26.6889 21.1085 25.8528L20.4462 24.3895C16.3677 24.3895 16.2283 24.4243 15.8797 25.3302ZM14.3808 39.2661C15.4614 35.8867 16.5072 33.0995 16.6814 33.0995C16.8906 33.0995 17.9015 35.7822 18.9821 39.0919C20.0279 42.4017 20.9691 45.2935 21.0388 45.5373C21.1085 45.8857 20.0976 45.9903 16.786 45.9903C14.3808 45.9903 12.4287 45.8509 12.4287 45.7115C12.4287 45.5722 13.3002 42.6805 14.3808 39.2661ZM64.1241 25.8876C62.7298 26.6889 61.2657 27.6993 60.8125 28.1174C60.3594 28.5354 60.1154 29.0232 60.2548 29.1626C60.4291 29.3019 61.196 29.1626 61.9977 28.8142C62.8343 28.4658 64.4378 27.6993 65.5882 27.0722C67.0522 26.2708 67.6797 25.7482 67.6797 25.2605C67.6797 24.8772 67.4357 24.5288 67.1568 24.494C66.8779 24.4243 65.5185 25.0514 64.1241 25.8876ZM85.8062 24.9121C85.7016 25.1908 85.7016 25.574 85.8062 25.7831C85.9108 25.9573 87.4446 26.8283 89.1875 27.6993C90.9653 28.6051 92.6385 29.2322 92.8477 29.0929C93.1265 28.9884 93.1962 28.7445 92.9871 28.4658C92.8128 28.2219 91.3487 27.2115 89.6755 26.2012C88.0372 25.1908 86.5034 24.3895 86.3291 24.3895C86.1199 24.3895 85.8759 24.5985 85.8062 24.9121ZM185.676 25.6786C185.188 25.9921 184.596 26.5147 184.387 26.7934C184.143 27.107 183.864 27.769 183.759 28.2916C183.655 28.8142 183.794 29.7548 184.108 30.382C184.387 31.0091 185.014 31.7059 185.502 31.9498C185.955 32.1936 187.001 32.4027 187.803 32.4027C188.988 32.4027 189.441 32.1936 190.417 31.1833C191.254 30.3123 191.602 29.6503 191.602 28.8142C191.602 28.187 191.323 27.316 190.975 26.8283C190.661 26.3754 189.859 25.7831 189.232 25.5392C188.639 25.2953 187.768 25.0863 187.315 25.0863C186.896 25.0863 186.164 25.3302 185.676 25.6786ZM68.2026 32.9253C67.1219 34.0053 65.3093 35.6776 64.0892 36.688C62.904 37.6635 61.8932 38.6739 61.928 38.9177C61.928 39.1616 62.3463 39.4403 62.8692 39.5449C63.4269 39.6842 64.1241 39.8584 64.4727 39.9978C65.0653 40.2068 65.1001 40.7991 65.1001 47.9065C65.1001 52.1569 65.2744 56.4074 65.4836 57.4874C65.7276 58.7068 66.1808 59.7172 66.7734 60.3095C67.2614 60.7972 68.4466 61.3895 69.4226 61.6334C70.7473 61.947 71.6187 61.9818 73.0828 61.7031C74.1285 61.494 75.8715 60.7972 76.9172 60.1701C78.0327 59.5082 78.8693 58.7765 78.939 58.3584C79.0088 57.9752 78.9042 57.5571 78.7647 57.4178C78.6253 57.2784 77.8584 57.3829 77.0915 57.6616C76.3246 57.9055 75.1743 58.1494 74.5469 58.1494C73.8497 58.1843 73.0828 57.8707 72.4553 57.3481C71.5141 56.5119 71.5141 56.4074 71.5141 52.5402C71.5141 50.3801 71.5839 46.6871 71.6187 44.3179L71.6884 40.0675C76.5338 40.0675 78.2767 39.8933 78.6602 39.7191C79.1831 39.4403 79.3573 39.0223 79.3573 37.8029V36.2351H71.3399C71.4793 31.8104 71.4096 31.3923 70.8867 31.2181C70.573 31.0788 70.2592 31.0091 70.1895 31.0091C70.1198 31.0091 69.2483 31.8801 68.2026 32.9253ZM45.7187 36.3396C44.9518 36.5835 43.7666 37.1061 43.1043 37.5241C42.442 37.9074 41.2917 38.8829 40.5596 39.6842C39.8625 40.4507 39.1653 41.5307 39.0607 42.0533C38.9213 42.5759 39.0259 43.3773 39.235 43.7953C39.5487 44.4225 39.8973 44.5967 41.0128 44.5967C42.1283 44.5967 42.5466 44.3876 43.1043 43.6211C43.4878 43.0985 43.8015 42.2275 43.8015 41.7049C43.8015 41.1127 44.1849 40.381 44.8124 39.7191C45.649 38.8481 46.1022 38.6739 47.4268 38.6739C48.6817 38.6739 49.2743 38.8829 50.1109 39.6145C51.0521 40.4855 51.2264 40.9036 51.575 43.5515C51.7841 45.1541 51.8539 46.7219 51.7493 47.0355C51.6447 47.3839 50.5989 47.6974 48.6469 48.011C47.0434 48.2897 45.0215 48.7078 44.1501 48.9517C43.2786 49.2304 41.9191 49.8923 41.0825 50.4149C40.0832 51.0653 39.2931 51.9711 38.7121 53.1325C38.259 54.0731 37.8755 55.3622 37.8755 55.9893C37.8755 56.6165 38.0498 57.5571 38.259 58.0797C38.4333 58.6023 38.9561 59.4036 39.3744 59.8566C39.7927 60.3095 40.5945 60.9366 41.1871 61.2153C41.8146 61.5289 43.1392 61.7728 44.4987 61.7728C46.137 61.7728 47.1479 61.5986 48.1588 61.076C48.9257 60.6579 49.9366 59.9262 50.4246 59.4036C50.9127 58.9159 51.3658 58.4978 51.4704 58.4978C51.575 58.4978 51.7841 59.0204 51.9933 59.6475C52.2373 60.4837 52.7253 60.9715 53.7362 61.4592C54.9911 62.0515 55.3397 62.0863 57.0478 61.7031C58.0936 61.494 59.6273 60.9018 60.4291 60.4488C61.44 59.8566 61.8932 59.3688 61.8234 58.9507C61.7537 58.463 61.4051 58.3584 59.9062 58.4281C58.3724 58.4978 58.0238 58.3933 57.745 57.8358C57.5358 57.4178 57.3964 53.8293 57.3964 49.3697C57.3615 42.6805 57.2918 41.4262 56.7341 40.2417C56.4203 39.4752 55.514 38.3255 54.7471 37.7332C54.0151 37.1061 52.7253 36.4441 51.8887 36.2351C51.087 36.026 49.6926 35.8867 48.7514 35.8867C47.8451 35.9215 46.4856 36.1306 45.7187 36.3396ZM49.3789 50.1711C50.2504 49.9969 51.1567 49.8923 51.3658 49.8575C51.6796 49.8227 51.819 50.5543 51.819 52.4357C51.819 54.3519 51.6447 55.2577 51.1915 55.9197C50.8778 56.4074 50.1109 56.9649 49.5532 57.139C48.9606 57.3481 47.9148 57.4874 47.1828 57.4874C46.1719 57.4874 45.6839 57.2436 45.0215 56.4422C44.5335 55.85 44.1501 54.979 44.1501 54.5261C44.1501 54.0383 44.3592 53.2021 44.6381 52.6795C44.8821 52.1569 45.7187 51.4253 46.4508 51.0769C47.1828 50.6937 48.5074 50.3104 49.3789 50.1711ZM85.109 37.2106C81.7277 38.2906 80.926 38.639 80.926 39.1616C80.926 39.5797 81.3094 39.9629 82.0763 40.2068C82.7038 40.4159 83.3661 40.7991 83.5404 41.1127C83.7147 41.3914 83.889 45.2935 83.889 49.9969V58.3584C82.5295 59.0204 81.8323 59.2294 81.4489 59.2294C80.8911 59.2294 80.7517 59.4385 80.8214 60.1701L80.926 61.1456H93.4751C93.4751 59.6127 93.266 59.3688 92.3945 59.2294C91.8368 59.1249 91.0699 58.8114 90.7213 58.5326C90.1984 58.0449 90.1287 57.1739 90.1287 50.1711C90.1287 42.4714 90.1635 42.2972 90.9304 41.5656C91.3836 41.1475 92.1505 40.6249 92.6734 40.4159C93.2311 40.2417 94.3117 40.0675 95.1135 40.0326C96.0895 40.0326 96.961 40.2765 97.5536 40.7294C98.1113 41.1475 98.6691 42.0185 98.8782 42.7501C99.0525 43.4818 99.2268 47.2097 99.2268 51.0421C99.2268 54.8745 99.0874 58.1842 98.9479 58.4281C98.8085 58.672 98.2159 58.9856 97.6581 59.1598C96.8564 59.3688 96.5775 59.6824 96.5078 60.3792L96.4381 61.3198H108.29C108.29 59.4036 108.151 59.2294 107.488 59.2294C107.07 59.2294 106.408 59.0204 106.024 58.7417C105.362 58.2539 105.327 57.801 105.292 50.1014L105.257 41.9837C106.652 40.7643 107.732 40.2417 108.534 40.0675C109.615 39.7887 110.382 39.8236 111.288 40.1371C112.02 40.381 112.891 41.0081 113.31 41.5656C114.007 42.4714 114.042 43.0289 114.111 50.4498C114.181 56.4074 114.111 58.463 113.763 58.7765C113.554 59.0204 112.822 59.2991 112.194 59.4036C111.288 59.543 111.079 59.7172 111.148 60.3443C111.253 61.1108 111.323 61.1456 117.249 61.2153C123.035 61.3198 123.279 61.285 123.454 60.623C123.558 60.2398 123.558 59.752 123.454 59.5778C123.349 59.3688 123 59.2294 122.652 59.2294C122.338 59.2294 121.711 58.9856 121.257 58.7068C120.491 58.1842 120.491 58.0797 120.491 50.3453C120.491 43.4121 120.421 42.2972 119.793 40.6597C119.445 39.6494 118.748 38.4997 118.329 38.0816C117.876 37.6635 116.935 37.0712 116.203 36.7577C115.506 36.479 113.937 36.2002 112.717 36.1654C110.939 36.0957 110.207 36.2699 108.499 37.1061C107.384 37.6983 106.233 38.43 105.885 38.7784C105.571 39.0919 105.153 39.3707 104.978 39.3707C104.769 39.3707 104.281 38.9177 103.828 38.3255C103.41 37.7332 102.643 37.0712 102.085 36.7925C101.562 36.5486 100.551 36.2002 99.7845 36.0609C99.0525 35.9564 97.5884 36.026 96.473 36.2699C95.218 36.5486 93.7191 37.2454 92.3248 38.1861L90.1635 39.7191C90.0241 36.9319 89.8149 36.0609 89.6407 36.026C89.4315 35.9563 87.4097 36.5138 85.109 37.2106ZM133.563 36.3396C132.796 36.5835 131.611 37.1061 130.948 37.5241C130.286 37.9074 129.136 38.8829 128.404 39.6842C127.393 40.7991 127.114 41.3914 127.114 42.4017C127.114 43.1334 127.288 43.8999 127.532 44.1437C127.776 44.3876 128.578 44.5967 129.275 44.5967C130.251 44.5967 130.704 44.3876 131.088 43.7953C131.367 43.3773 131.68 42.3669 131.785 41.5307C131.924 40.4855 132.273 39.8584 132.935 39.3358C133.597 38.8481 134.434 38.639 135.55 38.639C136.909 38.6739 137.397 38.8481 138.129 39.6145C138.617 40.1371 139.105 40.9733 139.21 41.4611C139.349 41.914 139.454 43.4818 139.454 44.9102L139.489 47.5232C134.364 48.3942 132.238 48.8471 131.471 49.091C130.704 49.3697 129.519 49.962 128.857 50.4149C128.194 50.8679 127.253 51.8085 126.765 52.5402C126.103 53.5505 125.894 54.2822 125.894 55.9197C125.894 57.7662 126.033 58.2191 126.939 59.4036C127.497 60.1353 128.543 60.9714 129.205 61.2502C129.868 61.5289 131.366 61.7728 132.517 61.7728C133.946 61.7728 135.027 61.5637 136.003 61.0411C136.77 60.6579 137.85 59.9262 138.443 59.4036C139.245 58.672 139.558 58.5675 139.733 58.9159C139.872 59.1946 140.011 59.543 139.977 59.752C139.977 59.9262 140.36 60.4488 140.778 60.8669C141.231 61.3198 142.138 61.7728 142.8 61.8773C143.567 62.0166 144.717 61.8773 145.937 61.494C146.983 61.1456 148.273 60.5882 148.796 60.2398C149.458 59.7869 149.737 59.2991 149.667 58.7765C149.598 58.2888 149.388 58.0449 149.075 58.1146C148.796 58.1842 147.994 58.3236 147.332 58.4281C146.495 58.5675 146.007 58.463 145.763 58.1494C145.554 57.8707 145.345 53.9338 145.24 49.091C145.066 40.6249 145.066 40.5204 144.16 39.1616C143.602 38.3255 142.626 37.4545 141.545 36.9319C140.29 36.3048 139.175 36.026 137.397 35.9912C136.038 35.9215 134.329 36.0957 133.563 36.3396ZM136.526 50.2756C137.571 50.0665 138.722 49.8575 139.035 49.8575C139.593 49.8227 139.663 50.1711 139.663 52.5053C139.663 55.0138 139.593 55.2925 138.722 56.1635C138.059 56.7906 137.223 57.1739 136.177 57.3133C135.166 57.4178 134.295 57.3481 133.737 57.0345C133.249 56.7906 132.656 56.1287 132.377 55.5364C131.994 54.7351 131.994 54.2473 132.308 53.2021C132.517 52.4705 133.075 51.6343 133.632 51.2859C134.155 50.9724 135.445 50.4846 136.526 50.2756ZM155.07 37.2106C151.619 38.3255 151.166 38.5693 151.166 39.2661C151.166 39.8004 151.364 40.0559 151.759 40.0326C152.107 40.0326 152.77 40.3462 153.258 40.6946L154.129 41.3914C154.303 56.0242 154.199 58.1146 153.885 58.463C153.641 58.7068 152.909 58.9856 152.282 59.0552C151.306 59.1946 151.166 59.334 151.166 60.2746V61.3198L163.541 61.1456C163.75 59.5082 163.576 59.3688 162.251 59.0552C161.101 58.7765 160.717 58.4978 160.543 57.8358C160.404 57.3481 160.264 53.6202 160.264 49.5439L160.229 42.1579C161.972 40.8339 163.192 40.2765 164.064 40.0326C165.319 39.7191 165.911 39.7539 166.992 40.1023C167.933 40.4159 168.596 40.9733 169.084 41.8095C169.746 42.9243 169.816 43.6908 169.92 50.3453C169.99 56.4422 169.92 57.801 169.467 58.4281C169.118 58.9623 168.596 59.2294 167.898 59.2294C166.957 59.2294 166.853 59.334 166.922 60.1701L167.027 61.1456C178.809 61.3198 179.053 61.285 179.227 60.623C179.332 60.2398 179.332 59.752 179.227 59.5778C179.123 59.3688 178.774 59.2294 178.426 59.2294C178.112 59.2294 177.485 58.9856 177.031 58.7068C176.264 58.1842 176.264 58.0449 176.16 49.7181C176.09 41.8443 176.02 41.1823 175.323 39.8933C174.94 39.1268 174.208 38.1513 173.755 37.7332C173.301 37.3151 172.36 36.7228 171.628 36.4093C170.931 36.1306 169.641 35.8867 168.77 35.8867C167.898 35.8867 166.469 36.1654 165.528 36.5138C164.622 36.8622 163.158 37.6287 162.216 38.2558C161.31 38.8481 160.508 39.3707 160.404 39.3707C160.299 39.3707 160.229 38.5693 160.229 37.6287C160.229 36.1654 160.125 35.8867 159.602 35.9215C159.288 35.9215 157.232 36.5138 155.07 37.2106ZM200.317 37.2106C196.901 38.3255 196.308 38.639 196.204 39.301C196.134 39.8933 196.343 40.1023 197.075 40.2068C197.633 40.3113 198.295 40.6597 198.574 40.9733C198.992 41.4611 199.132 43.0637 199.236 49.4394C199.306 54.7351 199.201 57.5571 198.957 58.0797C198.702 58.6139 198.167 58.9391 197.354 59.0552C196.273 59.1946 196.134 59.334 196.134 60.2746V61.3198C208.753 61.3198 209.032 61.285 209.206 60.623C209.311 60.2398 209.311 59.752 209.206 59.5778C209.101 59.3688 208.509 59.2294 207.881 59.2294C207.289 59.2294 206.452 59.0204 206.069 58.7417C205.406 58.2539 205.371 57.8358 205.406 51.1466C205.406 45.7464 205.546 43.8302 205.929 43.0289C206.208 42.4366 206.905 41.7746 207.463 41.4959C208.404 41.0778 208.683 41.0778 210.252 41.7398C211.193 42.1579 212.517 42.5063 213.11 42.5063C213.912 42.5063 214.4 42.2624 214.783 41.7049C215.062 41.2869 215.446 40.4507 215.62 39.8933C215.864 39.0919 215.794 38.5345 215.376 37.6287C214.888 36.6531 214.504 36.3396 213.424 36.0957C212.343 35.8518 211.716 35.9215 210.461 36.4093C209.589 36.7577 208.16 37.7332 207.289 38.5345C206.417 39.3707 205.615 40.0326 205.441 40.0326C205.302 40.0675 205.267 39.7191 205.371 39.2661C205.441 38.8481 205.476 37.9074 205.406 37.1758C205.337 36.3396 205.093 35.8867 204.814 35.8867C204.535 35.9215 202.513 36.5138 200.317 37.2106ZM283.629 36.688C282.583 37.1061 281.189 37.8377 280.527 38.3255C279.864 38.8132 279.063 39.5797 278.714 40.0675C278.366 40.5204 277.982 41.3914 277.843 41.9837C277.738 42.5411 277.808 43.3773 278.017 43.7953C278.331 44.4225 278.679 44.5967 279.795 44.5967C280.91 44.5967 281.329 44.3876 281.886 43.6211C282.27 43.0985 282.583 42.1927 282.583 41.6353C282.549 41.043 282.827 40.2068 283.176 39.7539C283.664 39.1268 284.222 38.8829 285.721 38.7784C287.289 38.639 287.812 38.7435 288.579 39.3358C289.137 39.7191 289.695 40.6249 289.904 41.3565C290.078 42.0882 290.252 43.7605 290.252 45.1193V47.5581C285.79 48.2897 283.559 48.7775 282.409 49.1607C281.259 49.5091 279.795 50.2059 279.167 50.6937C278.575 51.1814 277.738 52.1918 277.355 52.9583C276.936 53.7596 276.657 55.0138 276.657 55.9893C276.657 57.0694 276.971 58.1494 277.459 58.9856C277.912 59.7869 278.784 60.623 279.62 61.0411C280.596 61.5637 281.677 61.7728 283.281 61.7728C284.745 61.7728 285.965 61.5637 286.766 61.1456C287.429 60.7972 288.579 59.9611 289.311 59.2643C290.601 58.0101 290.601 58.01 290.601 58.8811C290.601 59.334 290.845 60.1004 291.124 60.5185C291.403 60.9714 292.239 61.494 292.936 61.7031C293.668 61.9121 294.889 61.9818 295.655 61.8773C296.422 61.7379 297.886 61.1805 298.862 60.623C300.152 59.8914 300.675 59.3688 300.605 58.9507C300.536 58.463 300.187 58.3584 298.793 58.4281C297.747 58.4978 296.875 58.3584 296.597 58.0797C296.248 57.7662 296.143 55.85 296.143 50.1711C296.178 46.0251 296.039 42.123 295.83 41.4611C295.655 40.7643 295.133 39.6842 294.714 39.0223C294.226 38.2558 293.146 37.4196 291.995 36.8274C290.461 36.0609 289.59 35.8867 287.812 35.8867C286.278 35.8867 284.919 36.1654 283.629 36.688ZM287.812 50.2059C288.684 50.0317 289.59 49.8923 289.869 49.9272C290.252 49.962 290.322 50.624 290.287 52.7841C290.287 54.4564 290.078 55.7455 289.799 56.0242C289.59 56.3029 288.893 56.7558 288.335 57.0345C287.638 57.3829 286.766 57.4874 285.721 57.3829C284.64 57.2436 283.943 56.93 283.525 56.3726C283.176 55.9197 282.897 55.0138 282.897 54.3519C282.897 53.6551 283.211 52.7144 283.559 52.2615C283.908 51.7737 284.675 51.1814 285.233 50.9375C285.79 50.6937 286.941 50.3453 287.812 50.2059ZM306.462 37.2106C302.836 38.3255 302.279 38.6042 302.174 39.2661C302.104 39.8933 302.313 40.1023 303.045 40.2068C303.603 40.3113 304.266 40.6597 304.544 40.9733C304.963 41.4611 305.102 43.0637 305.207 49.4394C305.276 54.8048 305.207 57.5571 304.928 58.0797C304.684 58.6023 304.126 58.9159 303.324 59.0552C302.244 59.1946 302.104 59.334 302.104 60.2746V61.3198L315.176 61.1456C315.176 59.543 314.967 59.3688 313.608 59.1249C312.736 58.9856 311.9 58.7417 311.76 58.6023C311.586 58.463 311.446 56.6165 311.412 54.5261C311.377 52.4008 311.377 48.9865 311.446 46.9309C311.516 43.4469 311.586 43.1334 312.388 42.3321C312.876 41.8443 313.608 41.3565 314.026 41.2172C314.514 41.1127 315.385 41.2869 316.292 41.7398C317.128 42.1579 318.348 42.5063 319.011 42.5063C319.917 42.5063 320.405 42.2624 320.928 41.5307C321.311 41.0081 321.73 40.0326 321.834 39.3707C321.974 38.4648 321.869 37.9074 321.346 37.2803C320.998 36.7925 320.091 36.2699 319.359 36.0957C318.348 35.8518 317.686 35.9215 316.605 36.3396C315.804 36.6183 314.34 37.5938 313.329 38.4648L311.516 40.0675C311.377 37.0015 311.168 36.0609 310.993 36.026C310.784 35.9912 308.762 36.5138 306.462 37.2106ZM185.502 37.3848C182.19 38.3603 181.668 38.6042 181.563 39.301C181.493 39.8933 181.737 40.1371 182.713 40.4159C183.376 40.5901 184.073 41.0778 184.282 41.4611C184.491 41.8791 184.596 45.398 184.526 50.4149L184.456 58.672C182.469 59.2295 181.807 59.4733 181.668 59.5778C181.563 59.6475 181.528 60.0656 181.633 60.4488C181.807 61.1108 182.156 61.1456 187.315 61.2153C190.347 61.2502 193.101 61.2153 193.415 61.1108C193.798 61.0063 194.042 60.623 194.042 60.1004C194.042 59.334 193.868 59.1946 192.648 59.0552C191.533 58.9159 191.184 58.672 190.87 57.9055C190.661 57.3132 190.522 53.0976 190.557 46.6871C190.591 37.0015 190.557 36.4093 189.964 36.3396C189.615 36.3047 187.594 36.7577 185.502 37.3848ZM79.8802 71.1796C78.9042 71.4234 77.4401 72.0157 76.5687 72.4338C75.6972 72.8867 74.0588 73.8622 72.9085 74.6636C71.7582 75.43 69.9804 76.7888 68.9695 77.6598C67.9237 78.5308 66.1808 80.3425 65.0653 81.7012C63.9498 83.0251 62.2069 85.4639 61.1611 87.1014C60.1502 88.7041 58.8604 91.108 58.3376 92.3971C57.8147 93.6862 57.2221 95.7766 57.0478 97.0308C56.8038 98.5289 56.8038 99.8529 57.0478 100.933C57.2221 101.839 57.745 103.128 58.1633 103.825C58.6164 104.487 59.6622 105.392 60.5337 105.81C61.5097 106.333 62.7298 106.612 63.8452 106.612C64.9956 106.612 65.867 106.403 66.4248 106.02C66.9825 105.601 67.1917 105.183 67.0174 104.765C66.8779 104.382 66.1808 104.034 65.135 103.825C63.915 103.581 63.1829 103.163 62.3115 102.152C61.1611 100.863 61.1263 100.828 61.2657 97.9018C61.3703 95.3237 61.5794 94.5572 62.7298 92.1532C63.4618 90.6203 64.8213 88.286 65.6927 86.9272C66.5991 85.6033 68.5163 83.3387 69.9455 81.8754C71.3747 80.447 73.6405 78.4611 75 77.5204C76.3246 76.5449 78.3116 75.43 79.3573 75.012C80.5774 74.4894 82.0415 74.2106 83.3661 74.2106C84.9696 74.1758 85.7365 74.35 86.6428 74.9771C87.3051 75.43 88.2463 76.5449 88.7343 77.5204C89.6058 79.1579 89.6407 79.5063 89.6058 84.6626C89.6058 89.2615 89.4664 90.6551 88.6646 94.0694C88.1417 96.2643 87.1308 99.8529 86.4685 102.083C85.7713 104.278 85.0742 106.229 84.9347 106.438C84.7953 106.612 82.3203 108.18 79.4968 109.887C76.6384 111.594 72.8039 113.998 70.9913 115.252C69.1786 116.506 66.3551 118.562 64.7167 119.851C63.0783 121.14 60.4291 123.579 58.7907 125.286C57.1524 126.993 55.0957 129.571 54.1894 131C53.2831 132.428 52.2024 134.553 51.7841 135.703C51.2613 137.236 51.087 138.386 51.1567 140.058C51.2612 141.974 51.4704 142.602 52.3419 143.716C52.8996 144.448 54.0151 145.354 54.782 145.667C55.5837 146.051 57.0129 146.295 58.1633 146.329C59.2787 146.329 61.0914 146.051 62.172 145.702C63.2875 145.354 65.0653 144.518 66.1111 143.856C67.1568 143.194 69.1089 141.73 70.4335 140.581C71.793 139.431 73.9891 137.062 75.3835 135.355C76.7429 133.613 78.8345 130.721 80.0197 128.909C81.2049 127.063 83.3312 123.23 84.7604 120.374C86.1897 117.482 87.828 113.893 88.4206 112.36C89.0481 110.827 89.7104 109.329 89.9195 109.085C90.1635 108.807 92.1853 107.343 94.4163 105.845C96.6821 104.347 98.5993 103.163 98.7039 103.197C98.8085 103.267 98.425 104.626 97.8673 106.263C97.2747 107.866 96.5078 110.375 96.1244 111.838C95.7061 113.336 95.3923 115.496 95.3923 116.89C95.3923 118.701 95.5666 119.607 96.0895 120.443C96.473 121.07 97.3096 121.907 97.9022 122.29C98.5296 122.673 99.6102 122.987 100.273 122.987C100.935 122.987 102.259 122.603 103.236 122.15C104.246 121.628 105.989 120.234 107.419 118.736C108.778 117.343 110.974 114.625 112.334 112.709C113.693 110.793 115.331 108.319 115.994 107.239C116.621 106.124 117.284 105.218 117.423 105.218C117.597 105.218 117.702 105.567 117.702 105.985C117.702 106.438 117.284 108.667 116.83 110.967C116.342 113.266 115.61 116.297 115.227 117.761C114.809 119.189 114.321 120.583 114.077 120.827C113.867 121.105 111.636 122.847 109.162 124.694C106.652 126.575 103.061 129.502 101.179 131.209C99.2617 132.916 96.6821 135.564 95.4272 137.132C94.1374 138.699 92.6385 140.964 92.011 142.183C91.4184 143.403 90.8258 145.04 90.6864 145.807C90.547 146.573 90.6167 147.862 90.8259 148.664C91.1047 149.744 91.5579 150.44 92.4991 151.102C93.6145 151.973 94.0677 152.078 96.4032 152.078C98.6691 152.078 99.4011 151.904 101.318 150.963C102.573 150.371 104.595 148.942 105.85 147.793C107.105 146.678 108.987 144.413 110.068 142.811C111.148 141.208 112.891 138.142 113.972 136.052C115.018 133.926 116.377 131.035 116.935 129.606C117.493 128.143 118.294 125.913 118.713 124.624L119.445 122.29C126.068 117.064 128.578 115.008 129.31 114.311C130.39 113.266 130.669 113.127 130.913 113.58C131.088 113.859 131.889 115.043 132.691 116.193C133.493 117.343 134.887 118.875 135.794 119.572C136.665 120.304 138.269 121.349 139.314 121.907C140.36 122.464 142.173 123.196 143.323 123.474C144.473 123.788 146.6 124.032 148.029 124.032C149.632 124.032 151.515 123.788 152.909 123.335C154.164 122.987 156.116 122.046 157.266 121.314C158.417 120.583 160.02 119.189 160.857 118.248C161.659 117.308 162.809 115.601 163.367 114.451C163.924 113.301 164.552 111.489 164.761 110.444C164.97 109.364 165.11 107.692 165.11 106.681C165.11 105.671 164.935 104.034 164.726 103.023C164.517 102.013 163.855 100.271 163.297 99.1212C162.739 97.9715 161.38 96.125 160.299 95.0101C159.009 93.6862 157.371 92.5016 155.698 91.6655C154.269 90.9338 152.142 90.1325 150.992 89.8886C149.737 89.6099 147.855 89.5054 146.286 89.6447C144.857 89.7493 142.73 90.1673 141.58 90.5506C140.43 90.9687 138.408 92.0139 137.083 92.9197C135.759 93.8255 134.19 95.2888 133.563 96.1598C132.935 96.996 132.064 98.4244 131.645 99.2954C131.192 100.132 130.634 101.63 130.356 102.605C130.112 103.546 129.902 105.392 129.902 106.681V109.051C123.279 114.799 121.327 116.332 121.257 116.158C121.188 115.984 121.641 113.022 122.234 109.573C122.826 106.124 123.628 101.804 124.011 99.9922C124.36 98.1457 124.674 96.1598 124.674 95.5327C124.674 94.8011 124.36 94.1043 123.802 93.5468C123.314 93.0591 122.617 92.6758 122.234 92.6758C121.85 92.6758 121.223 92.8152 120.839 93.0242C120.456 93.1984 119.515 94.592 118.783 96.0553C118.05 97.5534 116.621 100.166 115.61 101.908C114.599 103.616 113.066 106.054 112.194 107.309C111.323 108.528 109.406 111.036 107.941 112.883C106.477 114.695 104.665 116.681 103.898 117.343C103.131 117.97 102.225 118.423 101.841 118.388C101.353 118.318 101.109 117.97 101.005 117.238C100.935 116.646 101.074 115.078 101.318 113.754C101.562 112.395 102.294 109.643 102.957 107.657C103.619 105.636 104.944 102.117 105.885 99.818C106.861 97.5186 107.593 95.254 107.523 94.7662C107.453 94.2436 107 93.6862 106.268 93.3029C105.571 92.8849 104.839 92.7455 104.351 92.8849C103.933 93.0242 101.841 94.8707 99.7497 96.996C97.6233 99.1212 95.0089 101.49 93.8934 102.257C92.8128 103.023 91.8368 103.546 91.767 103.476C91.6625 103.372 91.9762 101.943 92.4293 100.341C92.8825 98.7031 93.5797 95.5675 93.9631 93.3726C94.3814 91.1429 94.6952 88.0073 94.6952 86.4046C94.6952 84.7671 94.5209 82.398 94.3117 81.1786C94.1374 79.9244 93.6145 78.1127 93.1614 77.172C92.7431 76.1965 91.9762 74.8726 91.4882 74.2106C91.0001 73.5138 89.7452 72.5383 88.6995 71.946C87.2006 71.1447 86.3639 70.9008 84.2376 70.8312C82.8084 70.7963 80.8214 70.9357 79.8802 71.1796ZM142.277 92.2926C143.218 91.9442 144.438 91.6655 144.961 91.6306C145.519 91.6306 145.937 91.77 145.937 91.979C145.937 92.1532 145.101 92.5713 144.09 92.8849C143.114 93.1984 141.789 93.6862 141.231 93.9649C140.639 94.2785 139.593 94.9404 138.861 95.4979C137.78 96.334 137.641 96.5779 137.99 97.0308C138.234 97.3444 138.652 97.5534 138.861 97.5534C139.105 97.5534 139.314 97.6928 139.314 97.9018C139.314 98.076 139.14 98.3199 138.966 98.4244C138.757 98.4941 138.234 98.2851 136.874 97.205L136.038 98.3199C135.584 98.947 134.887 100.097 134.504 100.863C134.155 101.63 133.667 102.779 133.458 103.476C133.249 104.138 132.831 104.905 132.517 105.218C132.029 105.671 131.959 105.671 131.959 105.044C131.994 104.661 132.203 103.546 132.482 102.605C132.761 101.63 133.388 100.132 133.876 99.2954C134.364 98.4244 135.445 97.0308 136.247 96.1947C137.083 95.3585 138.373 94.2785 139.14 93.7907C139.907 93.3029 141.301 92.641 142.277 92.2926ZM149.11 91.9093C149.156 91.6538 149.656 91.6074 150.608 91.77C151.375 91.8745 153.049 92.4668 154.303 93.0939C155.593 93.721 157.406 95.0101 158.521 96.125C159.741 97.3444 160.892 98.9122 161.589 100.341C162.182 101.56 162.774 103.372 162.914 104.312C163.123 105.671 163.088 105.985 162.704 105.88C162.46 105.81 161.972 104.87 161.659 103.825C161.31 102.745 160.613 101.072 160.125 100.062C159.323 98.5289 159.044 98.2851 158.382 98.4244C157.964 98.4941 156.918 98.6335 156.046 98.6683C154.478 98.7728 154.478 98.7728 154.373 97.5534C154.303 96.8566 154.129 96.1947 154.025 96.0553C153.885 95.8811 153.153 96.1598 152.386 96.6824C151.619 97.1702 150.748 97.5186 150.469 97.4837C150.19 97.4141 149.458 96.4734 148.9 95.3585C148.308 94.2785 147.785 93.3726 147.68 93.3726C147.576 93.3726 146.948 94.2088 146.286 95.2888C145.624 96.3689 144.857 97.3095 144.613 97.3792C144.404 97.4837 143.706 97.1353 143.149 96.6824C142.556 96.1947 141.929 95.8114 141.754 95.8114C141.545 95.8114 141.406 96.334 141.406 97.0308C141.406 97.6928 141.231 98.3199 141.057 98.4244C140.848 98.5289 140.743 97.9367 140.778 96.9263C140.848 95.6024 141.022 95.254 141.58 95.1843C141.964 95.1146 142.696 95.3933 143.218 95.7766C143.776 96.1598 144.299 96.5082 144.438 96.5082C144.613 96.5082 145.275 95.5675 145.972 94.4178C146.704 93.2681 147.471 92.3274 147.715 92.3274C147.994 92.3274 148.656 93.1287 149.214 94.1391C149.772 95.1495 150.399 96.1598 150.608 96.4037C150.922 96.7521 151.236 96.6824 152.107 95.9856C152.735 95.4979 153.502 95.1146 153.781 95.1146C154.059 95.1146 154.443 95.4282 154.652 95.8114C154.826 96.1947 155.001 96.8915 155.001 97.3792C155.001 97.9018 155.21 98.2502 155.524 98.2502C155.802 98.2502 156.116 98.076 156.221 97.9018C156.325 97.6928 156.778 97.6231 157.266 97.7276C157.755 97.7973 158.208 97.7276 158.312 97.5534C158.417 97.3444 157.65 96.5779 156.639 95.8463C155.663 95.0798 154.199 94.1739 153.432 93.7907C152.665 93.4075 151.375 92.9197 150.539 92.7107C149.737 92.5016 149.11 92.1532 149.11 91.9093ZM144.822 97.867C145.345 97.7276 146.356 97.5882 147.053 97.5882C147.785 97.5534 149.214 97.7625 150.19 98.0412C151.271 98.3547 152.665 99.1212 153.571 99.8877C154.408 100.619 155.489 101.978 155.977 102.954C156.639 104.208 156.883 105.253 156.883 106.786C156.918 108.354 156.674 109.364 155.977 110.793C155.489 111.838 154.408 113.266 153.537 113.998C152.7 114.73 151.341 115.566 150.469 115.844C149.598 116.123 148.273 116.367 147.506 116.367C146.739 116.367 145.415 116.123 144.543 115.844C143.672 115.531 142.382 114.904 141.65 114.416C140.709 113.824 140.046 112.918 139.245 111.211C138.269 109.085 138.164 108.633 138.338 106.438C138.408 105.079 138.791 103.441 139.105 102.779C139.454 102.083 140.221 101.037 140.848 100.375C141.441 99.7483 142.382 98.9818 142.905 98.6683C143.428 98.3896 144.299 98.0063 144.822 97.867ZM137.083 99.9922C137.397 99.609 137.99 99.2954 138.408 99.2954C138.791 99.2954 139.384 99.4348 139.663 99.6438C140.046 99.8877 139.837 99.9574 138.861 99.9922C138.094 99.9922 137.536 100.166 137.536 100.41C137.502 100.654 137.502 100.968 137.536 101.107C137.536 101.246 137.397 101.386 137.223 101.386C137.014 101.386 136.804 101.212 136.7 101.037C136.595 100.828 136.77 100.375 137.083 99.9922ZM157.441 101.386C157.441 101.177 157.545 101.037 157.685 101.037C157.859 101.037 158.243 101.246 158.556 101.49C158.87 101.699 159.149 102.083 159.184 102.326C159.184 102.57 158.835 102.988 158.382 103.267C157.964 103.581 157.685 103.859 157.789 103.894C157.894 103.964 159.114 104.765 160.473 105.671C161.868 106.577 163.018 107.378 163.018 107.483C163.018 107.552 161.763 108.389 160.229 109.294C158.661 110.2 157.406 111.036 157.441 111.141C157.441 111.211 157.789 111.664 158.243 112.082C158.731 112.569 158.905 113.057 158.731 113.406C158.591 113.684 158.173 114.033 157.789 114.172C157.127 114.416 157.127 114.486 157.72 115.078C158.033 115.391 158.452 115.67 158.661 115.67C158.835 115.67 159.428 115.008 159.916 114.172C160.404 113.371 161.066 111.942 161.38 111.036C161.694 110.131 162.112 109.294 162.321 109.225C162.495 109.12 162.739 109.085 162.879 109.12C162.983 109.19 162.809 110.165 162.495 111.315C162.182 112.465 161.415 114.172 160.822 115.113C160.195 116.053 158.975 117.447 158.103 118.248C157.232 119.015 155.663 120.095 154.617 120.583C153.571 121.07 151.863 121.698 150.818 121.907C149.772 122.15 148.866 122.255 148.796 122.116C148.761 122.011 148.796 121.767 148.9 121.593C149.005 121.384 150.12 120.931 151.41 120.548C152.77 120.13 154.652 119.224 155.837 118.353C156.988 117.552 157.964 116.715 157.999 116.541C158.068 116.332 157.406 115.635 156.5 114.973C155.628 114.277 155.07 113.719 155.314 113.649C155.524 113.615 155.942 113.754 156.221 113.998C156.674 114.346 156.883 114.311 157.441 113.754C158.103 113.057 158.103 113.057 157.406 112.186C157.022 111.698 156.709 111.106 156.744 110.862C156.744 110.618 157.336 110.061 158.033 109.608C158.765 109.155 159.916 108.493 161.798 107.378L159.602 105.95C158.417 105.149 157.371 104.347 157.266 104.173C157.162 103.964 157.336 103.546 157.615 103.197C157.894 102.884 158.138 102.396 158.138 102.152C158.138 101.908 157.964 101.734 157.789 101.734C157.58 101.734 157.441 101.56 157.441 101.386ZM136.177 101.978C136.212 101.839 136.491 101.839 136.804 102.013C137.118 102.187 137.606 102.605 137.815 102.919C138.094 103.267 138.164 103.685 137.955 104.068C137.78 104.417 136.77 105.149 135.689 105.741C134.608 106.298 133.737 106.856 133.737 106.96C133.737 107.03 134.608 107.622 135.654 108.249C136.7 108.876 137.711 109.713 137.92 110.096C138.199 110.618 138.094 110.967 137.467 111.698C136.804 112.465 136.77 112.639 137.223 112.918C137.502 113.092 138.025 113.162 138.338 113.057C138.687 112.953 139.035 113.022 139.14 113.231C139.245 113.44 138.722 113.58 137.92 113.58C136.874 113.58 136.421 113.406 136.177 112.883C135.898 112.326 136.003 111.977 136.595 111.28C137.118 110.688 137.258 110.27 137.014 110.131C136.804 110.026 135.654 109.294 134.504 108.528C133.319 107.762 132.343 106.995 132.343 106.856C132.343 106.716 132.796 106.333 133.353 105.985C133.911 105.671 135.131 104.939 137.746 103.372L136.944 102.814C136.491 102.501 136.142 102.117 136.177 101.978ZM132.133 109.747C131.959 107.936 131.994 107.866 132.482 108.528C132.796 108.911 133.284 109.991 133.597 110.967C133.911 111.907 134.539 113.371 134.992 114.172C135.445 115.008 135.933 115.67 136.072 115.67C136.247 115.67 136.595 115.426 136.874 115.148C137.153 114.834 137.641 114.59 137.92 114.625C138.269 114.625 138.129 114.869 136.595 116.193L138.199 117.552C139.105 118.318 140.813 119.363 141.998 119.921C143.218 120.443 144.404 120.896 144.613 120.861C144.857 120.861 145.31 121.105 145.589 121.419C145.868 121.698 146.042 122.011 145.937 122.116C145.833 122.185 144.752 121.976 143.497 121.663C142.242 121.314 140.43 120.583 139.489 120.025C138.513 119.468 137.118 118.423 136.351 117.726C135.584 117.029 134.364 115.391 133.667 114.068C132.796 112.5 132.273 111.002 132.133 109.747ZM79.7059 113.963C81.1351 113.162 82.3901 112.535 82.4946 112.535C82.5992 112.535 82.4598 113.127 82.2158 113.824C81.9369 114.555 80.8911 116.855 79.8802 118.98C78.8693 121.07 77.1264 124.276 76.0109 126.122C74.9303 127.934 72.9782 130.826 71.6884 132.568C70.3987 134.275 68.1329 136.818 66.6688 138.212C65.2047 139.605 63.2178 141.138 62.2766 141.626C61.3006 142.079 59.8713 142.567 59.0347 142.706C57.8844 142.845 57.3615 142.741 56.5946 142.183C56.0718 141.765 55.5489 140.964 55.4443 140.302C55.3397 139.675 55.4792 138.316 55.758 137.271C56.0718 136.191 57.1175 134.101 58.1284 132.568C59.1393 131.035 61.3703 128.317 63.1132 126.505C64.8561 124.729 67.61 122.185 69.2483 120.896C70.8867 119.607 73.2919 117.83 74.6514 116.959C75.9761 116.088 78.2767 114.73 79.7059 113.963ZM139.523 114.939C139.698 114.695 139.942 114.695 140.325 114.973C140.639 115.217 140.848 115.81 140.778 116.402C140.743 116.959 140.848 117.412 141.057 117.412C141.231 117.412 141.824 117.168 142.312 116.855C142.8 116.541 143.567 116.367 143.95 116.402C144.404 116.472 145.205 117.238 145.868 118.283C146.53 119.224 147.157 120.06 147.262 120.095C147.401 120.13 148.064 119.363 148.726 118.353C149.563 117.099 150.225 116.506 150.818 116.437C151.306 116.367 152.003 116.611 152.456 117.029C152.909 117.447 153.397 117.656 153.606 117.586C153.781 117.482 153.955 116.959 153.955 116.437C153.955 115.914 154.094 115.252 154.269 114.973C154.478 114.66 154.687 114.52 154.826 114.625C154.931 114.695 154.896 115.461 154.757 116.332C154.582 117.168 154.199 118.039 153.885 118.248C153.397 118.527 153.118 118.457 152.491 117.9C152.038 117.482 151.515 117.064 151.341 116.959C151.131 116.82 150.19 117.83 149.249 119.154C148.273 120.478 147.436 121.593 147.332 121.593C147.227 121.593 146.46 120.583 145.589 119.328C144.717 118.039 143.846 117.029 143.672 117.029C143.462 117.029 143.009 117.273 142.626 117.552C142.242 117.83 141.58 118.074 141.127 118.074C140.709 118.109 140.255 117.9 140.116 117.656C139.977 117.412 139.907 116.785 139.942 116.262C139.977 115.74 139.837 115.322 139.663 115.322C139.454 115.322 139.419 115.148 139.523 114.939ZM109.127 129.467C110.66 128.213 111.915 127.272 111.95 127.342C111.95 127.411 111.671 128.456 111.323 129.676C110.939 130.895 109.998 133.125 109.266 134.658C108.499 136.191 107.314 138.386 106.617 139.536C105.955 140.685 104.56 142.636 103.549 143.891C102.573 145.11 101.144 146.573 100.412 147.096C99.6451 147.618 98.4599 148.176 97.7627 148.315C96.8564 148.524 96.3684 148.455 95.9152 148.071C95.6015 147.758 95.3575 147.061 95.3575 146.504C95.3575 145.911 95.8455 144.518 96.4032 143.368C96.961 142.218 98.4599 140.093 99.68 138.665C100.935 137.201 102.922 135.076 104.142 133.926C105.362 132.742 107.628 130.756 109.127 129.467ZM243.646 74.141C243.019 74.8029 241.973 76.8933 240.788 79.9941C239.742 82.6419 237.441 88.8086 235.629 93.721C233.816 98.5986 232.073 102.884 231.759 103.232C231.446 103.581 230.226 104.591 229.075 105.462C227.925 106.298 225.659 107.762 224.021 108.667C222.383 109.573 220.535 110.549 219.908 110.793L218.757 111.315C214.679 107.239 213.18 105.462 212.761 104.696C212.273 103.755 212.029 102.64 212.029 101.386C211.995 99.9225 212.204 99.0864 212.901 97.9018C213.424 97.0308 214.47 95.7417 215.271 95.0101C216.038 94.3133 216.84 93.721 217.049 93.721C217.223 93.721 217.642 93.6165 217.921 93.5468C218.199 93.4423 218.757 93.6862 219.141 94.0694C219.664 94.592 219.838 95.2191 219.838 96.8566C219.838 98.4593 219.977 99.0864 220.535 99.6438C220.918 100.027 221.476 100.341 221.755 100.341C222.034 100.341 222.731 100.097 223.324 99.818C223.881 99.5045 224.683 98.7728 225.067 98.1457C225.45 97.5186 225.764 96.4385 225.764 95.7069C225.764 95.0101 225.589 93.9649 225.38 93.4423C225.171 92.9197 224.683 92.1184 224.265 91.6655C223.847 91.2125 222.871 90.5506 222.104 90.2022C221.302 89.8189 219.908 89.5402 218.792 89.5402C217.467 89.5402 216.317 89.8189 215.027 90.4112C214.051 90.899 212.413 92.0139 211.402 92.9197C210.426 93.8255 208.578 96.1598 207.358 98.076C206.103 99.9922 203.663 103.511 201.92 105.915C200.178 108.284 197.772 111.42 196.552 112.883C195.332 114.311 193.624 116.088 192.718 116.82C191.742 117.586 190.801 118.109 190.382 118.039C189.824 117.935 189.65 117.621 189.58 116.367C189.511 115.496 189.824 113.44 190.243 111.838C190.661 110.2 191.777 106.681 192.718 103.999C193.694 101.316 194.774 98.1805 195.123 97.0308C195.472 95.8811 195.716 94.4875 195.611 93.9649C195.506 93.4423 195.088 92.7803 194.635 92.5016C194.217 92.1881 193.345 91.979 192.753 91.979C192.09 91.979 191.393 92.2229 191.114 92.5713C190.87 92.9197 190.138 94.6617 189.546 96.5082C188.953 98.3199 188.012 100.515 187.489 101.386C186.966 102.257 185.572 104.382 184.387 106.089C183.201 107.796 181.18 110.479 179.925 112.012C178.67 113.545 176.718 115.531 175.637 116.472C174.556 117.377 173.267 118.214 172.779 118.318C172.151 118.492 171.768 118.353 171.454 117.9C171.21 117.517 171.036 116.367 171.036 115.322C171.036 114.242 171.28 111.977 171.559 110.27C171.872 108.528 172.5 105.636 172.988 103.825C173.476 101.978 174.591 98.2154 175.498 95.3933L177.136 90.2719C184.143 89.4009 186.827 88.9828 187.594 88.7737C188.36 88.5647 189.267 88.1466 189.615 87.8331C189.964 87.5195 190.208 86.9272 190.208 86.4743C190.208 85.9169 189.929 85.6381 189.232 85.4639C188.709 85.3594 186.06 85.3246 183.306 85.3943C180.587 85.464 178.356 85.5336 178.356 85.5336C178.356 85.5336 178.914 84.0355 179.576 82.2238C180.238 80.3773 180.796 78.4959 180.796 78.043C180.796 77.5553 180.482 76.8585 180.064 76.4752C179.611 76.0223 178.844 75.7784 178.007 75.7784C177.066 75.7784 176.404 76.0223 175.742 76.6494C175.254 77.1024 174.522 78.3566 174.138 79.4366C173.72 80.4818 173.092 82.3632 172.709 83.6174L172.012 85.882C164.378 86.5788 162.182 86.9621 161.694 87.2756C161.275 87.5543 160.927 88.0769 160.927 88.3905C160.927 88.7389 161.31 89.4009 161.833 89.8886C162.67 90.6899 162.948 90.7596 166.713 90.7596C169.223 90.7596 170.652 90.8641 170.548 91.108C170.478 91.2822 170.025 92.7803 169.537 94.4178C169.014 96.0205 168.142 99.3303 167.585 101.734C166.992 104.103 166.26 107.483 165.981 109.225C165.702 110.932 165.458 113.44 165.458 114.799C165.458 116.123 165.598 117.83 165.807 118.527C165.981 119.259 166.574 120.339 167.097 120.931C167.654 121.523 168.491 122.255 169.014 122.499C169.572 122.778 170.513 122.987 171.105 122.987C171.733 122.987 173.023 122.603 173.999 122.15C175.01 121.663 176.613 120.408 177.833 119.119C179.018 117.865 180.97 115.566 182.19 113.998C183.445 112.395 184.526 111.106 184.631 111.141C184.735 111.141 184.596 112.186 184.352 113.475C184.073 114.764 183.933 116.785 184.003 117.935C184.108 119.085 184.421 120.408 184.735 120.896C185.014 121.349 185.711 121.976 186.234 122.29C186.757 122.569 187.803 122.778 188.604 122.778C189.371 122.743 190.661 122.464 191.428 122.116C192.195 121.767 194.217 120.025 195.96 118.283C197.668 116.506 200.735 113.022 202.757 110.514C204.779 108.005 206.487 105.95 206.592 105.915C206.696 105.915 207.184 106.577 207.707 107.378C208.23 108.214 209.694 110.026 211.019 111.42C212.308 112.813 213.319 113.998 213.215 114.068C213.11 114.102 211.158 115.008 208.857 116.053C206.557 117.064 204.256 118.283 203.733 118.701C203.175 119.154 202.757 119.851 202.757 120.269C202.757 120.722 203.036 121.523 203.385 122.116C203.733 122.673 204.639 123.44 205.371 123.788C206.138 124.171 207.777 124.52 209.032 124.624C210.74 124.763 211.89 124.659 213.738 124.067C215.062 123.649 216.875 122.812 217.746 122.185C218.653 121.523 219.629 120.374 220.082 119.468C220.605 118.457 220.884 117.273 220.884 116.088V114.277C225.067 112.012 227.193 110.758 228.274 110.026C229.389 109.294 230.33 108.702 230.365 108.702C230.435 108.702 229.947 110.862 229.319 113.475C228.692 116.123 228.204 118.666 228.204 119.154C228.204 119.607 228.518 120.513 228.901 121.14C229.285 121.767 229.877 122.394 230.191 122.499C230.539 122.603 231.167 122.603 231.585 122.499C232.143 122.359 233.224 120.861 235.071 117.726C236.57 115.217 239.045 111.489 240.544 109.469C242.078 107.413 244.831 104.173 246.714 102.257C248.561 100.341 250.513 98.5289 251.001 98.2502C251.733 97.8321 251.978 97.7973 252.361 98.1805C252.675 98.4941 252.675 98.9819 252.396 100.271C252.187 101.142 251.28 104.73 250.374 108.18C249.293 112.465 248.771 115.148 248.771 116.715C248.736 118.492 248.91 119.224 249.537 120.165C249.991 120.827 250.792 121.663 251.315 122.081C252.117 122.673 252.814 122.812 254.975 122.778C257.241 122.778 257.973 122.638 259.577 121.802C260.762 121.175 262.958 119.363 265.433 116.924C268.257 114.137 269.337 112.848 269.267 112.36C269.198 111.977 268.849 111.594 268.466 111.559C268.001 111.466 266.839 112.256 264.98 113.928C263.446 115.322 261.564 116.89 260.797 117.412C260.03 117.935 258.845 118.527 258.182 118.771C257.52 118.98 256.579 119.085 256.091 118.98C255.603 118.875 254.906 118.457 254.522 118.074C253.964 117.482 253.825 116.89 253.86 115.357C253.86 114.102 254.592 110.897 255.917 106.263C257.381 101.107 257.973 98.4941 257.973 96.8914C258.008 94.8011 257.938 94.6617 256.788 93.6513C255.707 92.6758 255.359 92.5713 253.79 92.7107C252.5 92.8152 251.524 93.1636 250.06 94.1391C248.945 94.8707 246.923 96.6127 245.529 98.0063C244.169 99.3999 241.45 102.396 239.533 104.626C237.616 106.891 236.012 108.633 235.943 108.458C235.908 108.284 236.57 106.438 237.476 104.347C238.348 102.222 240.892 96.1947 243.089 90.9338C245.285 85.6382 247.481 80.238 247.934 78.914C248.387 77.5553 248.771 75.9526 248.771 75.3255C248.771 74.559 248.526 74.0364 247.969 73.688C247.55 73.3745 246.609 73.1654 245.912 73.1654C244.971 73.1654 244.378 73.4093 243.646 74.141ZM211.158 118.597C213.354 117.586 215.236 116.715 215.376 116.715C215.55 116.715 215.655 117.064 215.655 117.482C215.655 117.935 215.341 118.701 214.958 119.224C214.574 119.746 213.842 120.408 213.284 120.652C212.761 120.931 211.751 121.245 211.019 121.349C210.321 121.488 209.171 121.488 208.509 121.419C207.846 121.314 207.254 121.07 207.219 120.861C207.184 120.652 208.962 119.642 211.158 118.597ZM196.517 76.0572C196.029 76.2662 195.297 77.0327 194.844 77.6946C194.286 78.5308 194.008 79.4018 194.008 80.4818C194.008 81.527 194.217 82.2471 194.635 82.6419C195.018 83.0251 195.82 83.2342 196.831 83.2342C197.703 83.269 198.957 82.9903 199.62 82.6419C200.456 82.2238 200.979 81.6315 201.328 80.656C201.711 79.5412 201.746 78.9837 201.398 77.9385C201.154 77.0675 200.666 76.4752 199.968 76.1268C199.376 75.8133 198.574 75.6042 198.121 75.6042C197.703 75.6042 196.971 75.8133 196.517 76.0572ZM144.892 98.6683C144.229 98.9122 143.253 99.3999 142.696 99.7135C142.173 100.062 141.301 101.003 140.743 101.804C140.221 102.64 139.593 103.825 139.349 104.521C139.14 105.183 138.966 106.368 138.966 107.134C138.966 107.901 139.14 109.051 139.349 109.747C139.558 110.409 140.151 111.489 140.674 112.151C141.162 112.813 142.277 113.789 143.149 114.346C144.02 114.869 145.345 115.426 146.112 115.531C146.879 115.635 148.378 115.531 149.423 115.287C150.887 114.939 151.724 114.486 153.014 113.266C153.955 112.36 155.001 111.036 155.349 110.27C155.768 109.399 156.046 108.11 156.046 106.856C156.046 105.776 155.872 104.452 155.698 103.999C155.489 103.511 154.687 102.396 153.85 101.525C153.049 100.619 151.759 99.5741 150.992 99.1909C150.225 98.8077 148.796 98.4593 147.855 98.3547C146.879 98.2851 145.554 98.4244 144.892 98.6683ZM144.229 99.7135C144.438 99.4696 144.752 99.2954 144.927 99.2954C145.101 99.2954 145.693 99.7483 146.286 100.341C146.844 100.898 147.436 101.386 147.576 101.386C147.75 101.386 148.203 101.003 148.622 100.515C149.005 100.027 149.632 99.6438 150.016 99.6438C150.364 99.609 150.852 99.818 151.097 100.062C151.341 100.306 151.515 101.177 151.515 103.476L152.805 103.441C153.711 103.441 154.303 103.685 154.722 104.138C155.07 104.556 155.245 105.044 155.105 105.288C154.966 105.532 154.478 106.054 153.223 107.134L154.094 108.005C154.582 108.458 155.001 109.155 155.001 109.469C155.001 109.817 154.687 110.235 154.303 110.444C153.92 110.618 153.049 110.793 152.386 110.793C151.166 110.793 151.166 110.793 151.062 112.395C151.027 113.475 150.783 114.137 150.364 114.416C149.876 114.73 149.563 114.59 147.506 112.569L146.286 113.58C145.24 114.416 144.961 114.52 144.438 114.172C144.09 113.928 143.706 113.092 143.567 112.256C143.358 111.036 143.184 110.758 142.521 110.793C142.103 110.793 141.371 110.618 140.883 110.444C140.395 110.235 140.011 109.817 140.011 109.469C140.011 109.155 140.465 108.423 141.929 106.96L140.987 105.985C140.465 105.462 140.011 104.87 140.011 104.696C139.977 104.487 140.186 104.138 140.43 103.894C140.674 103.685 141.51 103.407 142.277 103.337C143.637 103.197 143.672 103.197 143.776 101.699C143.811 100.863 144.02 99.9574 144.229 99.7135ZM144.543 101.908C144.543 102.919 144.683 103.476 144.961 103.476C145.205 103.476 145.798 103.197 146.286 102.814L147.157 102.117C145.798 100.724 145.205 100.306 144.961 100.306C144.683 100.341 144.543 100.898 144.543 101.908ZM149.04 101.212C148.378 101.943 148.273 102.222 148.587 102.71C148.796 103.023 149.319 103.337 149.702 103.372C150.399 103.441 150.469 103.302 150.469 101.908C150.469 101.037 150.33 100.341 150.19 100.341C150.016 100.341 149.493 100.724 149.04 101.212ZM141.58 104.068C141.197 104.138 140.918 104.312 140.953 104.452C140.987 104.591 141.336 105.079 141.72 105.567C142.277 106.263 142.521 106.368 143.044 106.054C143.393 105.845 143.672 105.253 143.706 104.73C143.741 103.999 143.567 103.825 143.009 103.859C142.591 103.894 141.964 103.964 141.58 104.068ZM145.763 104.661C145.252 105.149 144.95 105.892 144.857 106.891C144.717 108.249 144.822 108.493 145.763 109.26C146.321 109.713 147.192 110.096 147.68 110.096C148.168 110.061 148.97 109.643 149.528 109.12C150.19 108.458 150.469 107.831 150.469 106.96C150.469 106.124 150.225 105.497 149.702 104.974C149.249 104.591 148.378 104.173 147.75 104.103C146.879 103.964 146.356 104.138 145.763 104.661ZM151.341 104.521C151.236 104.696 151.306 105.183 151.515 105.567C151.689 105.95 152.142 106.263 152.456 106.229C152.805 106.229 153.397 106.02 153.781 105.741C154.234 105.392 154.373 105.044 154.199 104.696C154.059 104.382 153.467 104.173 152.735 104.173C152.073 104.173 151.445 104.312 151.341 104.521ZM141.441 108.423C141.057 108.876 140.813 109.329 140.953 109.504C141.092 109.643 141.824 109.747 142.521 109.747C143.323 109.747 143.846 109.573 143.846 109.294C143.846 109.051 143.602 108.598 143.253 108.249C142.905 107.936 142.521 107.657 142.417 107.657C142.312 107.657 141.859 108.005 141.441 108.423ZM151.55 108.18C151.341 108.458 151.201 108.981 151.236 109.294C151.306 109.713 151.689 109.956 152.386 109.991C152.944 110.061 153.676 109.956 153.955 109.747C154.408 109.469 154.338 109.294 153.606 108.528C153.118 108.04 152.561 107.622 152.351 107.622C152.107 107.657 151.759 107.866 151.55 108.18ZM144.543 112.186C144.543 112.953 144.648 113.58 144.787 113.545C144.961 113.545 145.484 113.162 146.007 112.674C146.809 111.977 146.913 111.733 146.53 111.28C146.321 111.002 145.763 110.758 145.31 110.758C144.648 110.793 144.543 110.967 144.543 112.186ZM148.552 111.002C148.378 111.141 148.273 111.489 148.308 111.803C148.343 112.117 148.761 112.744 149.249 113.231C149.946 113.928 150.155 113.998 150.295 113.58C150.399 113.266 150.469 112.569 150.399 112.012C150.33 111.246 150.086 110.932 149.563 110.862C149.179 110.793 148.726 110.862 148.552 111.002Z" fill="#CD0000"/>
</svg>
